<?xml version="1.0" encoding="UTF-8"?>
<svg viewBox="0 0 24 24" version="1.1" xmlns="http://www.w3.org/2000/svg" xmlns:xlink="http://www.w3.org/1999/xlink">
    <title>logo league/champion league</title>
    <defs>
        <polygon id="path-1" points="9.85100331 16.1347984 16.9291275 16.1347984 16.9291275 19.7958626 9.85100331 19.7958626"></polygon>
    </defs>
    <g id="logo-league/champion-league" stroke="none" stroke-width="1" fill="none" fill-rule="evenodd">
        <g id="Group" transform="translate(2.000000, 2.000000)">
            <path d="M10.064294,11.1334149 C12.2297681,11.7311499 13.8446046,12.0127317 13.8446046,12.0127317 C12.9156853,11.0833114 12.0844679,10.1278373 11.3649814,9.2239698 C12.6215776,7.44679795 13.6121242,6.21675655 13.6121242,6.21675655 C12.2788696,6.51186628 11.018265,6.87311265 9.88943271,7.2438787 C8.81721739,5.7036965 8.228,4.61945634 8.228,4.61945634 C7.91535404,5.77584557 7.76404141,6.93323688 7.71343685,8.02098429 C5.92173499,8.71491804 4.80192133,9.28208988 4.80192133,9.28208988 C5.7709234,9.71849154 6.77650104,10.0997793 7.75051346,10.4274563 C7.90833954,12.5187772 8.33121325,13.9702762 8.33121325,13.9702762 C8.8743354,13.0007731 9.47156936,12.0362804 10.064294,11.1334149" id="Fill-1" fill="#2D2E2E"></path>
            <path d="M19.9494178,10.5849317 C19.6548091,11.0458841 19.2043785,11.3750642 18.6772894,11.6065425 C18.6051404,10.1269855 18.3791735,8.81878263 18.3791735,8.81878263 C17.9292439,10.033793 17.4512563,11.1120207 16.990805,12.0429441 C15.4030244,12.2468654 13.8443039,12.012882 13.8443039,12.012882 C14.69907,13.038 15.3634427,13.6462568 15.9005524,14.0566046 C15.0963909,15.4114038 14.514188,16.1348986 14.514188,16.1348986 C15.638511,15.8773665 16.5313557,15.4509855 17.2418236,14.94494 C17.5329251,15.144853 17.7829416,15.3673127 18.030453,15.7445922 C18.030453,15.7445922 18.4889002,15.0942485 18.6457242,13.5891387 C19.78107,12.1040704 19.9494178,10.5849317 19.9494178,10.5849317" id="Fill-3" fill="#2D2E2E"></path>
            <path d="M19.4307963,6.4851611 C18.9247507,5.34731017 18.1957445,4.48853584 17.4006017,3.8416994 C16.722701,2.41725634 15.9420882,1.75989816 15.9420882,1.75989816 C16.0082248,2.08757518 15.9581213,2.45834123 15.8363698,2.84163315 C14.1478812,2.00440334 12.6082,1.88816317 12.6082,1.88816317 C13.5892269,2.53099133 14.4595251,3.32813833 15.2070696,4.14983605 C14.5186472,5.27065178 13.6127756,6.21660624 13.6127756,6.21660624 C14.8132559,5.94604723 15.7802538,5.83231224 16.5533511,5.81126876 C17.7403035,7.44564557 18.3791234,8.81848201 18.3791234,8.81848201 C18.402171,7.7136994 18.2919433,6.75020872 18.1070613,5.91849029 C19.1116369,6.10988574 19.4307963,6.4851611 19.4307963,6.4851611" id="Fill-5" fill="#2D2E2E"></path>
            <path d="M12.6080998,1.88801286 C11.7889072,1.47616193 11.0052882,1.18906876 10.275781,0.991660894 C11.2041992,0.207039776 12.0674828,0.00812880271 12.0674828,0.00812880271 C10.5774041,-0.0509933505 9.29625714,0.21806255 8.22354079,0.630414517 C6.62173126,0.502650542 5.6016236,0.780725076 5.6016236,0.780725076 C5.84161946,0.961097747 6.04403768,1.28426545 6.25096522,1.67056359 C4.89766915,2.5974787 4.21024886,3.56297352 4.21024886,3.56297352 C5.02593416,3.15813708 5.89172298,2.85100251 6.74498592,2.61701907 C6.83817847,2.78787207 6.93588033,2.95872508 7.04310186,3.1255698 C7.60826957,4.0053876 8.22855114,4.61965675 8.22855114,4.61965675 C8.45050973,3.56447663 8.83179752,2.74327994 9.27020331,2.10596317 C11.1751391,1.84091555 12.6080998,1.88801286 12.6080998,1.88801286" id="Fill-7" fill="#2D2E2E"></path>
            <path d="M2.32515404,5.13692549 C2.8357089,4.64340582 3.45749358,4.11180748 4.21004845,3.56317394 C4.21004845,3.56317394 3.51561366,3.56317394 2.78209814,3.74955903 C3.26710021,2.57463149 3.80571304,1.9227847 3.80571304,1.9227847 C3.80571304,1.9227847 0.71532795,4.12132715 0.1281147,8.07148864 C0.1281147,8.07148864 0.387650932,7.35751348 1.26847081,6.28028781 C1.61819337,7.06340582 2.02052464,7.55642445 2.02052464,7.55642445 C2.02553499,6.65406007 2.14778758,5.84388615 2.32515404,5.13692549" id="Fill-9" fill="#2D2E2E"></path>
            <path d="M4.80242236,9.28193957 C3.729706,9.31600996 2.88846791,9.40970354 2.23311387,9.52995199 C2.04873292,8.38157932 2.02067495,7.55637435 2.02067495,7.55637435 C1.49057971,8.36454412 1.14787164,9.14465592 0.935432712,9.87065592 C0.188389234,10.1477284 -3.87568765e-14,10.4152812 -3.87568765e-14,10.4152812 C0.116240166,10.8136042 0.349221532,11.2009044 0.643329193,11.5636539 C0.551138716,13.2837077 1.10778882,14.4200555 1.10778882,14.4200555 C1.23254658,13.8173102 1.48256315,13.2300969 1.79621118,12.6819644 C2.71110145,13.4154799 3.61747412,13.8934675 3.61747412,13.8934675 C3.1900911,13.1278857 2.87594203,12.2711156 2.6449648,11.4414013 C3.67108489,10.1537408 4.80242236,9.28193957 4.80242236,9.28193957" id="Fill-11" fill="#2D2E2E"></path>
            <path d="M10.109788,18.0676919 C10.109788,18.0676919 9.20992878,17.7084497 7.92126625,16.9824497 C7.96736149,16.2083503 8.08660787,15.221812 8.33161408,13.9707271 C8.33161408,13.9707271 7.30749814,14.9843213 5.98175901,15.7699445 C5.21216894,15.2378452 4.4029971,14.6135553 3.61737391,13.8935677 C3.61737391,13.8935677 3.99966377,15.0755098 4.73668654,16.3766982 C4.03724141,16.6382385 3.31625176,16.7599901 2.65739048,16.5986568 C2.65739048,16.5986568 3.43599917,17.570665 5.8379619,17.983518 C6.50333665,18.7736505 7.31501366,19.4264994 8.26197019,19.6534683 C8.26197019,19.6534683 7.97638012,19.3403213 7.91324969,18.1653938 C8.56810269,18.1744124 9.2971089,18.1453524 10.109788,18.0676919" id="Fill-13" fill="#2D2E2E"></path>
            <mask id="mask-2" fill="white">
                <use xlink:href="#path-1"></use>
            </mask>
            <g id="Clip-16"></g>
            <path d="M14.4630323,17.9685872 C14.6694588,17.0181234 14.5146389,16.1347984 14.5146389,16.1347984 C13.9073843,17.0081027 13.3096493,17.6734775 12.7570075,18.180024 C11.269935,18.2571835 10.1095375,18.0677922 10.1095375,18.0677922 C10.1095375,18.0677922 10.7734091,18.7306617 11.5384899,19.1129516 C10.5279019,19.7377425 9.85100331,19.7938584 9.85100331,19.7938584 C14.2746431,19.887552 16.9291275,16.9995851 16.9291275,16.9995851 C16.1835872,17.4911006 15.3203035,17.7917218 14.4630323,17.9685872" id="Fill-15" fill="#2D2E2E" mask="url(#mask-2)"></path>
        </g>
    </g>
</svg>